<svg width="389" height="165" viewBox="0 0 389 165" fill="none" xmlns="http://www.w3.org/2000/svg">
<mask id="path-1-inside-1_377_13" fill="white">
<path fill-rule="evenodd" clip-rule="evenodd" d="M0 48.527V101.559C0 113.736 7.36129 124.706 18.6304 129.321L98.5355 162.045C102.144 163.523 106.006 164.283 109.905 164.283H278.147C282.013 164.283 285.842 163.536 289.424 162.083L370.277 129.286C381.595 124.695 389 113.7 389 101.486V48.527V30V20V0H383H359H30H6H0V20V30V48.527Z"/>
</mask>
<path fill-rule="evenodd" clip-rule="evenodd" d="M0 48.527V101.559C0 113.736 7.36129 124.706 18.6304 129.321L98.5355 162.045C102.144 163.523 106.006 164.283 109.905 164.283H278.147C282.013 164.283 285.842 163.536 289.424 162.083L370.277 129.286C381.595 124.695 389 113.7 389 101.486V48.527V30V20V0H383H359H30H6H0V20V30V48.527Z" fill="#FFDBF9"/>
<path d="M18.6304 129.321L16.3565 134.873L16.3565 134.873L18.6304 129.321ZM98.5355 162.045L96.2615 167.597L96.2615 167.597L98.5355 162.045ZM289.424 162.083L287.168 156.523L287.168 156.523L289.424 162.083ZM370.277 129.286L372.532 134.846L372.532 134.846L370.277 129.286ZM389 0H395V-6H389V0ZM0 0V-6H-6V0H0ZM6 101.559V48.527H-6V101.559H6ZM20.9043 123.768C11.889 120.076 6 111.301 6 101.559H-6C-6 116.172 2.83354 129.335 16.3565 134.873L20.9043 123.768ZM100.809 156.492L20.9043 123.768L16.3565 134.873L96.2615 167.597L100.809 156.492ZM109.905 158.283C106.786 158.283 103.696 157.675 100.809 156.492L96.2615 167.597C100.592 169.37 105.226 170.283 109.905 170.283V158.283ZM278.147 158.283H109.905V170.283H278.147V158.283ZM287.168 156.523C284.303 157.685 281.239 158.283 278.147 158.283V170.283C282.786 170.283 287.381 169.386 291.679 167.643L287.168 156.523ZM368.021 123.726L287.168 156.523L291.679 167.643L372.532 134.846L368.021 123.726ZM383 101.486C383 111.257 377.076 120.053 368.021 123.726L372.532 134.846C386.114 129.336 395 116.143 395 101.486H383ZM383 48.527V101.486H395V48.527H383ZM395 48.527V30H383V48.527H395ZM395 30V20H383V30H395ZM395 20V0H383V20H395ZM389 -6H383V6H389V-6ZM383 -6H359V6H383V-6ZM359 -6H30V6H359V-6ZM30 -6H6V6H30V-6ZM6 -6H0V6H6V-6ZM-6 0V20H6V0H-6ZM-6 20V30H6V20H-6ZM-6 30V48.527H6V30H-6Z" fill="#B396D2" mask="url(#path-1-inside-1_377_13)"/>
</svg>
